<?xml version="1.0" encoding="UTF-8" standalone="no"?>
<!DOCTYPE svg PUBLIC "-//W3C//DTD SVG 1.1//EN"
 "http://www.w3.org/Graphics/SVG/1.1/DTD/svg11.dtd">
<!-- Generated by graphviz version 2.40.1 (20161225.0304)
 -->
<!-- Title: dependencies Pages: 1 -->
<svg width="1401pt" height="284pt"
 viewBox="0.00 0.00 1401.00 284.00" xmlns="http://www.w3.org/2000/svg" xmlns:xlink="http://www.w3.org/1999/xlink">
<g id="graph0" class="graph" transform="scale(1 1) rotate(0) translate(4 280)">
<title>dependencies</title>
<polygon fill="#ffffff" stroke="transparent" points="-4,4 -4,-280 1397,-280 1397,4 -4,4"/>
<text text-anchor="start" x="675.5091" y="-42.4" font-family="sans-serif" font-weight="bold" font-size="14.00" fill="#000000">Legend</text>
<polygon fill="#ffffb3" stroke="transparent" points="462.5,-10 462.5,-30 482.5,-30 482.5,-10 462.5,-10"/>
<text text-anchor="start" x="486.129" y="-15.4" font-family="sans-serif" font-size="14.00" fill="#000000"> &#160;Declarations</text>
<polygon fill="#8dd3c7" stroke="transparent" points="575.5,-10 575.5,-30 595.5,-30 595.5,-10 575.5,-10"/>
<text text-anchor="start" x="599.2251" y="-15.4" font-family="sans-serif" font-size="14.00" fill="#000000"> &#160;Module</text>
<polygon fill="#80b1d3" stroke="transparent" points="661.5,-10 661.5,-30 681.5,-30 681.5,-10 661.5,-10"/>
<text text-anchor="start" x="685.2812" y="-15.4" font-family="sans-serif" font-size="14.00" fill="#000000"> &#160;Bootstrap</text>
<polygon fill="#fdb462" stroke="transparent" points="758.5,-10 758.5,-30 778.5,-30 778.5,-10 758.5,-10"/>
<text text-anchor="start" x="782.1732" y="-15.4" font-family="sans-serif" font-size="14.00" fill="#000000"> &#160;Providers</text>
<polygon fill="#fb8072" stroke="transparent" points="854.5,-10 854.5,-30 874.5,-30 874.5,-10 854.5,-10"/>
<text text-anchor="start" x="878.2258" y="-15.4" font-family="sans-serif" font-size="14.00" fill="#000000"> &#160;Exports</text>
<g id="clust1" class="cluster">
<title>cluster_CoreModule</title>
<polygon fill="none" stroke="#000000" stroke-dasharray="1,5" points="8,-70 8,-268 1385,-268 1385,-70 8,-70"/>
</g>
<g id="clust2" class="cluster">
<title>cluster_CoreModule_declarations</title>
<polygon fill="none" stroke="#000000" points="1105,-78 1105,-130 1377,-130 1377,-78 1105,-78"/>
</g>
<g id="clust5" class="cluster">
<title>cluster_CoreModule_imports</title>
<polygon fill="none" stroke="#000000" points="706,-78 706,-130 1097,-130 1097,-78 706,-78"/>
</g>
<g id="clust6" class="cluster">
<title>cluster_CoreModule_exports</title>
<polygon fill="none" stroke="#000000" points="631,-208 631,-260 923,-260 923,-208 631,-208"/>
</g>
<g id="clust8" class="cluster">
<title>cluster_CoreModule_providers</title>
<polygon fill="none" stroke="#000000" points="16,-78 16,-130 698,-130 698,-78 16,-78"/>
</g>
<!-- HeaderComponent -->
<g id="node1" class="node">
<title>HeaderComponent</title>
<polygon fill="#ffffb3" stroke="#000000" points="1368.7437,-122 1247.2563,-122 1247.2563,-86 1368.7437,-86 1368.7437,-122"/>
<text text-anchor="middle" x="1308" y="-99.8" font-family="Times,serif" font-size="14.00" fill="#000000">HeaderComponent</text>
</g>
<!-- CoreModule -->
<g id="node3" class="node">
<title>CoreModule</title>
<polygon fill="#8dd3c7" stroke="#000000" points="821.2619,-187 818.2619,-191 797.2619,-191 794.2619,-187 734.7381,-187 734.7381,-151 821.2619,-151 821.2619,-187"/>
<text text-anchor="middle" x="778" y="-164.8" font-family="Times,serif" font-size="14.00" fill="#000000">CoreModule</text>
</g>
<!-- HeaderComponent&#45;&gt;CoreModule -->
<g id="edge1" class="edge">
<title>HeaderComponent&#45;&gt;CoreModule</title>
<path fill="none" stroke="#000000" d="M1308,-122.0109C1308,-144.4852 1308,-180 1308,-180 1308,-180 831.3721,-180 831.3721,-180"/>
<polygon fill="#000000" stroke="#000000" points="831.3722,-176.5001 821.3721,-180 831.3721,-183.5001 831.3722,-176.5001"/>
</g>
<!-- HomeComponent -->
<g id="node2" class="node">
<title>HomeComponent</title>
<polygon fill="#ffffb3" stroke="#000000" points="1228.5451,-122 1113.4549,-122 1113.4549,-86 1228.5451,-86 1228.5451,-122"/>
<text text-anchor="middle" x="1171" y="-99.8" font-family="Times,serif" font-size="14.00" fill="#000000">HomeComponent</text>
</g>
<!-- HomeComponent&#45;&gt;CoreModule -->
<g id="edge2" class="edge">
<title>HomeComponent&#45;&gt;CoreModule</title>
<path fill="none" stroke="#000000" d="M1171,-122.1289C1171,-142.5724 1171,-173 1171,-173 1171,-173 831.5594,-173 831.5594,-173"/>
<polygon fill="#000000" stroke="#000000" points="831.5595,-169.5001 821.5594,-173 831.5594,-176.5001 831.5595,-169.5001"/>
</g>
<!-- HeaderComponent  -->
<g id="node7" class="node">
<title>HeaderComponent </title>
<polygon fill="#fb8072" stroke="#000000" points="914.7436,-252 789.2564,-252 789.2564,-216 914.7436,-216 914.7436,-252"/>
<text text-anchor="middle" x="852" y="-229.8" font-family="Times,serif" font-size="14.00" fill="#000000">HeaderComponent </text>
</g>
<!-- CoreModule&#45;&gt;HeaderComponent  -->
<g id="edge6" class="edge">
<title>CoreModule&#45;&gt;HeaderComponent </title>
<path fill="none" stroke="#000000" stroke-dasharray="5,2" d="M805.3796,-187.1061C805.3796,-187.1061 805.3796,-205.991 805.3796,-205.991"/>
<polygon fill="#000000" stroke="#000000" points="801.8796,-205.9909 805.3796,-215.991 808.8796,-205.991 801.8796,-205.9909"/>
</g>
<!-- AppRoutingModule  -->
<g id="node8" class="node">
<title>AppRoutingModule </title>
<polygon fill="#fb8072" stroke="#000000" points="771.2745,-252 638.7255,-252 638.7255,-216 771.2745,-216 771.2745,-252"/>
<text text-anchor="middle" x="705" y="-229.8" font-family="Times,serif" font-size="14.00" fill="#000000">AppRoutingModule </text>
</g>
<!-- CoreModule&#45;&gt;AppRoutingModule  -->
<g id="edge7" class="edge">
<title>CoreModule&#45;&gt;AppRoutingModule </title>
<path fill="none" stroke="#000000" stroke-dasharray="5,2" d="M752.8782,-187.1061C752.8782,-187.1061 752.8782,-205.991 752.8782,-205.991"/>
<polygon fill="#000000" stroke="#000000" points="749.3782,-205.9909 752.8782,-215.991 756.3782,-205.991 749.3782,-205.9909"/>
</g>
<!-- CommonModule -->
<g id="node4" class="node">
<title>CommonModule</title>
<polygon fill="#8dd3c7" stroke="#000000" points="1088.6681,-122 1085.6681,-126 1064.6681,-126 1061.6681,-122 977.3319,-122 977.3319,-86 1088.6681,-86 1088.6681,-122"/>
<text text-anchor="middle" x="1033" y="-99.8" font-family="Times,serif" font-size="14.00" fill="#000000">CommonModule</text>
</g>
<!-- CommonModule&#45;&gt;CoreModule -->
<g id="edge3" class="edge">
<title>CommonModule&#45;&gt;CoreModule</title>
<path fill="none" stroke="#000000" d="M1033,-122.2667C1033,-140.5552 1033,-166 1033,-166 1033,-166 831.5463,-166 831.5463,-166"/>
<polygon fill="#000000" stroke="#000000" points="831.5464,-162.5001 821.5463,-166 831.5463,-169.5001 831.5464,-162.5001"/>
</g>
<!-- SharedModule -->
<g id="node5" class="node">
<title>SharedModule</title>
<polygon fill="#8dd3c7" stroke="#000000" points="959.4231,-122 956.4231,-126 935.4231,-126 932.4231,-122 860.5769,-122 860.5769,-86 959.4231,-86 959.4231,-122"/>
<text text-anchor="middle" x="910" y="-99.8" font-family="Times,serif" font-size="14.00" fill="#000000">SharedModule</text>
</g>
<!-- SharedModule&#45;&gt;CoreModule -->
<g id="edge4" class="edge">
<title>SharedModule&#45;&gt;CoreModule</title>
<path fill="none" stroke="#000000" d="M887.7053,-122.0091C887.7053,-138.0494 887.7053,-159 887.7053,-159 887.7053,-159 831.3584,-159 831.3584,-159"/>
<polygon fill="#000000" stroke="#000000" points="831.3585,-155.5001 821.3584,-159 831.3584,-162.5001 831.3585,-155.5001"/>
</g>
<!-- AppRoutingModule -->
<g id="node6" class="node">
<title>AppRoutingModule</title>
<polygon fill="#8dd3c7" stroke="#000000" points="842.2744,-122 839.2744,-126 818.2744,-126 815.2744,-122 713.7256,-122 713.7256,-86 842.2744,-86 842.2744,-122"/>
<text text-anchor="middle" x="778" y="-99.8" font-family="Times,serif" font-size="14.00" fill="#000000">AppRoutingModule</text>
</g>
<!-- AppRoutingModule&#45;&gt;CoreModule -->
<g id="edge5" class="edge">
<title>AppRoutingModule&#45;&gt;CoreModule</title>
<path fill="none" stroke="#000000" d="M778,-122.1061C778,-122.1061 778,-140.991 778,-140.991"/>
<polygon fill="#000000" stroke="#000000" points="774.5001,-140.9909 778,-150.991 781.5001,-140.991 774.5001,-140.9909"/>
</g>
<!-- ShoppingListService -->
<g id="node9" class="node">
<title>ShoppingListService</title>
<ellipse fill="#fdb462" stroke="#000000" cx="598" cy="-104" rx="92.0741" ry="18"/>
<text text-anchor="middle" x="598" y="-99.8" font-family="Times,serif" font-size="14.00" fill="#000000">ShoppingListService</text>
</g>
<!-- ShoppingListService&#45;&gt;CoreModule -->
<g id="edge8" class="edge">
<title>ShoppingListService&#45;&gt;CoreModule</title>
<path fill="none" stroke="#000000" d="M664.45,-116.4804C664.45,-132.7077 664.45,-159 664.45,-159 664.45,-159 724.4233,-159 724.4233,-159"/>
<polygon fill="#000000" stroke="#000000" points="724.4234,-162.5001 734.4233,-159 724.4233,-155.5001 724.4234,-162.5001"/>
</g>
<!-- RecipeService -->
<g id="node10" class="node">
<title>RecipeService</title>
<ellipse fill="#fdb462" stroke="#000000" cx="421" cy="-104" rx="66.6094" ry="18"/>
<text text-anchor="middle" x="421" y="-99.8" font-family="Times,serif" font-size="14.00" fill="#000000">RecipeService</text>
</g>
<!-- RecipeService&#45;&gt;CoreModule -->
<g id="edge9" class="edge">
<title>RecipeService&#45;&gt;CoreModule</title>
<path fill="none" stroke="#000000" d="M421,-122.2667C421,-140.5552 421,-166 421,-166 421,-166 724.5817,-166 724.5817,-166"/>
<polygon fill="#000000" stroke="#000000" points="724.5817,-169.5001 734.5817,-166 724.5817,-162.5001 724.5817,-169.5001"/>
</g>
<!-- DataStorageService -->
<g id="node11" class="node">
<title>DataStorageService</title>
<ellipse fill="#fdb462" stroke="#000000" cx="248" cy="-104" rx="87.9355" ry="18"/>
<text text-anchor="middle" x="248" y="-99.8" font-family="Times,serif" font-size="14.00" fill="#000000">DataStorageService</text>
</g>
<!-- DataStorageService&#45;&gt;CoreModule -->
<g id="edge10" class="edge">
<title>DataStorageService&#45;&gt;CoreModule</title>
<path fill="none" stroke="#000000" d="M248,-122.1289C248,-142.5724 248,-173 248,-173 248,-173 724.6279,-173 724.6279,-173"/>
<polygon fill="#000000" stroke="#000000" points="724.6279,-176.5001 734.6279,-173 724.6278,-169.5001 724.6279,-176.5001"/>
</g>
<!-- AuthService -->
<g id="node12" class="node">
<title>AuthService</title>
<ellipse fill="#fdb462" stroke="#000000" cx="83" cy="-104" rx="59.1083" ry="18"/>
<text text-anchor="middle" x="83" y="-99.8" font-family="Times,serif" font-size="14.00" fill="#000000">AuthService</text>
</g>
<!-- AuthService&#45;&gt;CoreModule -->
<g id="edge11" class="edge">
<title>AuthService&#45;&gt;CoreModule</title>
<path fill="none" stroke="#000000" d="M83,-122.0109C83,-144.4852 83,-180 83,-180 83,-180 724.5246,-180 724.5246,-180"/>
<polygon fill="#000000" stroke="#000000" points="724.5247,-183.5001 734.5246,-180 724.5246,-176.5001 724.5247,-183.5001"/>
</g>
</g>
</svg>
