<?xml version="1.0" encoding="UTF-8" standalone="no"?>
<!DOCTYPE svg PUBLIC "-//W3C//DTD SVG 1.1//EN"
 "http://www.w3.org/Graphics/SVG/1.1/DTD/svg11.dtd">
<!-- Generated by graphviz version 2.40.1 (20161225.0304)
 -->
<!-- Title: dependencies Pages: 1 -->
<svg width="1586pt" height="211pt"
 viewBox="0.00 0.00 1586.00 211.00" xmlns="http://www.w3.org/2000/svg" xmlns:xlink="http://www.w3.org/1999/xlink">
<g id="graph0" class="graph" transform="scale(1 1) rotate(0) translate(4 207)">
<title>dependencies</title>
<polygon fill="#ffffff" stroke="transparent" points="-4,4 -4,-207 1582,-207 1582,4 -4,4"/>
<text text-anchor="start" x="768.0091" y="-42.4" font-family="sans-serif" font-weight="bold" font-size="14.00" fill="#000000">Legend</text>
<polygon fill="#ffffb3" stroke="transparent" points="555,-10 555,-30 575,-30 575,-10 555,-10"/>
<text text-anchor="start" x="578.629" y="-15.4" font-family="sans-serif" font-size="14.00" fill="#000000"> &#160;Declarations</text>
<polygon fill="#8dd3c7" stroke="transparent" points="668,-10 668,-30 688,-30 688,-10 668,-10"/>
<text text-anchor="start" x="691.7251" y="-15.4" font-family="sans-serif" font-size="14.00" fill="#000000"> &#160;Module</text>
<polygon fill="#80b1d3" stroke="transparent" points="754,-10 754,-30 774,-30 774,-10 754,-10"/>
<text text-anchor="start" x="777.7812" y="-15.4" font-family="sans-serif" font-size="14.00" fill="#000000"> &#160;Bootstrap</text>
<polygon fill="#fdb462" stroke="transparent" points="851,-10 851,-30 871,-30 871,-10 851,-10"/>
<text text-anchor="start" x="874.6732" y="-15.4" font-family="sans-serif" font-size="14.00" fill="#000000"> &#160;Providers</text>
<polygon fill="#fb8072" stroke="transparent" points="947,-10 947,-30 967,-30 967,-10 947,-10"/>
<text text-anchor="start" x="970.7258" y="-15.4" font-family="sans-serif" font-size="14.00" fill="#000000"> &#160;Exports</text>
<g id="clust1" class="cluster">
<title>cluster_RecipesModule</title>
<polygon fill="none" stroke="#000000" stroke-dasharray="1,5" points="8,-70 8,-195 1570,-195 1570,-70 8,-70"/>
</g>
<g id="clust2" class="cluster">
<title>cluster_RecipesModule_declarations</title>
<polygon fill="none" stroke="#000000" points="598,-78 598,-130 1562,-130 1562,-78 598,-78"/>
</g>
<g id="clust9" class="cluster">
<title>cluster_RecipesModule_imports</title>
<polygon fill="none" stroke="#000000" points="16,-78 16,-130 590,-130 590,-78 16,-78"/>
</g>
<!-- RecipesComponent -->
<g id="node1" class="node">
<title>RecipesComponent</title>
<polygon fill="#ffffb3" stroke="#000000" points="1553.6485,-122 1428.3515,-122 1428.3515,-86 1553.6485,-86 1553.6485,-122"/>
<text text-anchor="middle" x="1491" y="-99.8" font-family="Times,serif" font-size="14.00" fill="#000000">RecipesComponent</text>
</g>
<!-- RecipesModule -->
<g id="node7" class="node">
<title>RecipesModule</title>
<polygon fill="#8dd3c7" stroke="#000000" points="812.8655,-187 809.8655,-191 788.8655,-191 785.8655,-187 709.1345,-187 709.1345,-151 812.8655,-151 812.8655,-187"/>
<text text-anchor="middle" x="761" y="-164.8" font-family="Times,serif" font-size="14.00" fill="#000000">RecipesModule</text>
</g>
<!-- RecipesComponent&#45;&gt;RecipesModule -->
<g id="edge1" class="edge">
<title>RecipesComponent&#45;&gt;RecipesModule</title>
<path fill="none" stroke="#000000" d="M1491,-122.0109C1491,-144.4852 1491,-180 1491,-180 1491,-180 822.9146,-180 822.9146,-180"/>
<polygon fill="#000000" stroke="#000000" points="822.9146,-176.5001 812.9146,-180 822.9145,-183.5001 822.9146,-176.5001"/>
</g>
<!-- RecipeStartComponent -->
<g id="node2" class="node">
<title>RecipeStartComponent</title>
<polygon fill="#ffffb3" stroke="#000000" points="1410.1428,-122 1263.8572,-122 1263.8572,-86 1410.1428,-86 1410.1428,-122"/>
<text text-anchor="middle" x="1337" y="-99.8" font-family="Times,serif" font-size="14.00" fill="#000000">RecipeStartComponent</text>
</g>
<!-- RecipeStartComponent&#45;&gt;RecipesModule -->
<g id="edge2" class="edge">
<title>RecipeStartComponent&#45;&gt;RecipesModule</title>
<path fill="none" stroke="#000000" d="M1337,-122.1289C1337,-142.5724 1337,-173 1337,-173 1337,-173 822.8773,-173 822.8773,-173"/>
<polygon fill="#000000" stroke="#000000" points="822.8773,-169.5001 812.8773,-173 822.8773,-176.5001 822.8773,-169.5001"/>
</g>
<!-- RecipeListComponent -->
<g id="node3" class="node">
<title>RecipeListComponent</title>
<polygon fill="#ffffb3" stroke="#000000" points="1245.9818,-122 1104.0182,-122 1104.0182,-86 1245.9818,-86 1245.9818,-122"/>
<text text-anchor="middle" x="1175" y="-99.8" font-family="Times,serif" font-size="14.00" fill="#000000">RecipeListComponent</text>
</g>
<!-- RecipeListComponent&#45;&gt;RecipesModule -->
<g id="edge3" class="edge">
<title>RecipeListComponent&#45;&gt;RecipesModule</title>
<path fill="none" stroke="#000000" d="M1175,-122.2667C1175,-140.5552 1175,-166 1175,-166 1175,-166 823.0142,-166 823.0142,-166"/>
<polygon fill="#000000" stroke="#000000" points="823.0142,-162.5001 813.0142,-166 823.0142,-169.5001 823.0142,-162.5001"/>
</g>
<!-- RecipeItemComponent -->
<g id="node4" class="node">
<title>RecipeItemComponent</title>
<polygon fill="#ffffb3" stroke="#000000" points="1085.8599,-122 940.1401,-122 940.1401,-86 1085.8599,-86 1085.8599,-122"/>
<text text-anchor="middle" x="1013" y="-99.8" font-family="Times,serif" font-size="14.00" fill="#000000">RecipeItemComponent</text>
</g>
<!-- RecipeItemComponent&#45;&gt;RecipesModule -->
<g id="edge4" class="edge">
<title>RecipeItemComponent&#45;&gt;RecipesModule</title>
<path fill="none" stroke="#000000" d="M1013,-122.0091C1013,-138.0494 1013,-159 1013,-159 1013,-159 822.909,-159 822.909,-159"/>
<polygon fill="#000000" stroke="#000000" points="822.909,-155.5001 812.909,-159 822.909,-162.5001 822.909,-155.5001"/>
</g>
<!-- RecipeDetailComponent -->
<g id="node5" class="node">
<title>RecipeDetailComponent</title>
<polygon fill="#ffffb3" stroke="#000000" points="922.4115,-122 767.5885,-122 767.5885,-86 922.4115,-86 922.4115,-122"/>
<text text-anchor="middle" x="845" y="-99.8" font-family="Times,serif" font-size="14.00" fill="#000000">RecipeDetailComponent</text>
</g>
<!-- RecipeDetailComponent&#45;&gt;RecipesModule -->
<g id="edge5" class="edge">
<title>RecipeDetailComponent&#45;&gt;RecipesModule</title>
<path fill="none" stroke="#000000" d="M790.3636,-122.1061C790.3636,-122.1061 790.3636,-140.991 790.3636,-140.991"/>
<polygon fill="#000000" stroke="#000000" points="786.8637,-140.9909 790.3636,-150.991 793.8637,-140.991 786.8637,-140.9909"/>
</g>
<!-- RecipeEditComponent -->
<g id="node6" class="node">
<title>RecipeEditComponent</title>
<polygon fill="#ffffb3" stroke="#000000" points="749.5379,-122 606.4621,-122 606.4621,-86 749.5379,-86 749.5379,-122"/>
<text text-anchor="middle" x="678" y="-99.8" font-family="Times,serif" font-size="14.00" fill="#000000">RecipeEditComponent</text>
</g>
<!-- RecipeEditComponent&#45;&gt;RecipesModule -->
<g id="edge6" class="edge">
<title>RecipeEditComponent&#45;&gt;RecipesModule</title>
<path fill="none" stroke="#000000" d="M729.418,-122.1061C729.418,-122.1061 729.418,-140.991 729.418,-140.991"/>
<polygon fill="#000000" stroke="#000000" points="725.918,-140.9909 729.418,-150.991 732.918,-140.991 725.918,-140.9909"/>
</g>
<!-- CommonModule -->
<g id="node8" class="node">
<title>CommonModule</title>
<polygon fill="#8dd3c7" stroke="#000000" points="581.6681,-122 578.6681,-126 557.6681,-126 554.6681,-122 470.3319,-122 470.3319,-86 581.6681,-86 581.6681,-122"/>
<text text-anchor="middle" x="526" y="-99.8" font-family="Times,serif" font-size="14.00" fill="#000000">CommonModule</text>
</g>
<!-- CommonModule&#45;&gt;RecipesModule -->
<g id="edge7" class="edge">
<title>CommonModule&#45;&gt;RecipesModule</title>
<path fill="none" stroke="#000000" d="M526,-122.0091C526,-138.0494 526,-159 526,-159 526,-159 698.8459,-159 698.8459,-159"/>
<polygon fill="#000000" stroke="#000000" points="698.8459,-162.5001 708.8459,-159 698.8458,-155.5001 698.8459,-162.5001"/>
</g>
<!-- ReactiveFormsModule -->
<g id="node9" class="node">
<title>ReactiveFormsModule</title>
<polygon fill="#8dd3c7" stroke="#000000" points="452.3047,-122 449.3047,-126 428.3047,-126 425.3047,-122 307.6953,-122 307.6953,-86 452.3047,-86 452.3047,-122"/>
<text text-anchor="middle" x="380" y="-99.8" font-family="Times,serif" font-size="14.00" fill="#000000">ReactiveFormsModule</text>
</g>
<!-- ReactiveFormsModule&#45;&gt;RecipesModule -->
<g id="edge8" class="edge">
<title>ReactiveFormsModule&#45;&gt;RecipesModule</title>
<path fill="none" stroke="#000000" d="M380,-122.2667C380,-140.5552 380,-166 380,-166 380,-166 698.8224,-166 698.8224,-166"/>
<polygon fill="#000000" stroke="#000000" points="698.8225,-169.5001 708.8224,-166 698.8224,-162.5001 698.8225,-169.5001"/>
</g>
<!-- RecipesRoutingModule -->
<g id="node10" class="node">
<title>RecipesRoutingModule</title>
<polygon fill="#8dd3c7" stroke="#000000" points="289.4832,-122 286.4832,-126 265.4832,-126 262.4832,-122 140.5168,-122 140.5168,-86 289.4832,-86 289.4832,-122"/>
<text text-anchor="middle" x="215" y="-99.8" font-family="Times,serif" font-size="14.00" fill="#000000">RecipesRoutingModule</text>
</g>
<!-- RecipesRoutingModule&#45;&gt;RecipesModule -->
<g id="edge9" class="edge">
<title>RecipesRoutingModule&#45;&gt;RecipesModule</title>
<path fill="none" stroke="#000000" d="M215,-122.1289C215,-142.5724 215,-173 215,-173 215,-173 698.6472,-173 698.6472,-173"/>
<polygon fill="#000000" stroke="#000000" points="698.6473,-176.5001 708.6472,-173 698.6472,-169.5001 698.6473,-176.5001"/>
</g>
<!-- SharedModule -->
<g id="node11" class="node">
<title>SharedModule</title>
<polygon fill="#8dd3c7" stroke="#000000" points="122.4231,-122 119.4231,-126 98.4231,-126 95.4231,-122 23.5769,-122 23.5769,-86 122.4231,-86 122.4231,-122"/>
<text text-anchor="middle" x="73" y="-99.8" font-family="Times,serif" font-size="14.00" fill="#000000">SharedModule</text>
</g>
<!-- SharedModule&#45;&gt;RecipesModule -->
<g id="edge10" class="edge">
<title>SharedModule&#45;&gt;RecipesModule</title>
<path fill="none" stroke="#000000" d="M73,-122.0109C73,-144.4852 73,-180 73,-180 73,-180 699.0062,-180 699.0062,-180"/>
<polygon fill="#000000" stroke="#000000" points="699.0062,-183.5001 709.0062,-180 699.0061,-176.5001 699.0062,-183.5001"/>
</g>
</g>
</svg>
