<?xml version="1.0" encoding="UTF-8" standalone="no"?>
<!DOCTYPE svg PUBLIC "-//W3C//DTD SVG 1.1//EN"
 "http://www.w3.org/Graphics/SVG/1.1/DTD/svg11.dtd">
<!-- Generated by graphviz version 2.40.1 (20161225.0304)
 -->
<!-- Title: dependencies Pages: 1 -->
<svg width="659pt" height="211pt"
 viewBox="0.00 0.00 659.00 211.00" xmlns="http://www.w3.org/2000/svg" xmlns:xlink="http://www.w3.org/1999/xlink">
<g id="graph0" class="graph" transform="scale(1 1) rotate(0) translate(4 207)">
<title>dependencies</title>
<polygon fill="#ffffff" stroke="transparent" points="-4,4 -4,-207 655,-207 655,4 -4,4"/>
<text text-anchor="start" x="304.5091" y="-42.4" font-family="sans-serif" font-weight="bold" font-size="14.00" fill="#000000">Legend</text>
<polygon fill="#ffffb3" stroke="transparent" points="91.5,-10 91.5,-30 111.5,-30 111.5,-10 91.5,-10"/>
<text text-anchor="start" x="115.129" y="-15.4" font-family="sans-serif" font-size="14.00" fill="#000000"> &#160;Declarations</text>
<polygon fill="#8dd3c7" stroke="transparent" points="204.5,-10 204.5,-30 224.5,-30 224.5,-10 204.5,-10"/>
<text text-anchor="start" x="228.2251" y="-15.4" font-family="sans-serif" font-size="14.00" fill="#000000"> &#160;Module</text>
<polygon fill="#80b1d3" stroke="transparent" points="290.5,-10 290.5,-30 310.5,-30 310.5,-10 290.5,-10"/>
<text text-anchor="start" x="314.2812" y="-15.4" font-family="sans-serif" font-size="14.00" fill="#000000"> &#160;Bootstrap</text>
<polygon fill="#fdb462" stroke="transparent" points="387.5,-10 387.5,-30 407.5,-30 407.5,-10 387.5,-10"/>
<text text-anchor="start" x="411.1732" y="-15.4" font-family="sans-serif" font-size="14.00" fill="#000000"> &#160;Providers</text>
<polygon fill="#fb8072" stroke="transparent" points="483.5,-10 483.5,-30 503.5,-30 503.5,-10 483.5,-10"/>
<text text-anchor="start" x="507.2258" y="-15.4" font-family="sans-serif" font-size="14.00" fill="#000000"> &#160;Exports</text>
<g id="clust1" class="cluster">
<title>cluster_ShoppingListModule</title>
<polygon fill="none" stroke="#000000" stroke-dasharray="1,5" points="8,-70 8,-195 643,-195 643,-70 8,-70"/>
</g>
<g id="clust2" class="cluster">
<title>cluster_ShoppingListModule_declarations</title>
<polygon fill="none" stroke="#000000" points="265,-78 265,-130 635,-130 635,-78 265,-78"/>
</g>
<g id="clust5" class="cluster">
<title>cluster_ShoppingListModule_imports</title>
<polygon fill="none" stroke="#000000" points="16,-78 16,-130 257,-130 257,-78 16,-78"/>
</g>
<!-- ShoppingListComponent -->
<g id="node1" class="node">
<title>ShoppingListComponent</title>
<polygon fill="#ffffb3" stroke="#000000" points="627.2841,-122 470.7159,-122 470.7159,-86 627.2841,-86 627.2841,-122"/>
<text text-anchor="middle" x="549" y="-99.8" font-family="Times,serif" font-size="14.00" fill="#000000">ShoppingListComponent</text>
</g>
<!-- ShoppingListModule -->
<g id="node3" class="node">
<title>ShoppingListModule</title>
<polygon fill="#8dd3c7" stroke="#000000" points="345.5014,-187 342.5014,-191 321.5014,-191 318.5014,-187 210.4986,-187 210.4986,-151 345.5014,-151 345.5014,-187"/>
<text text-anchor="middle" x="278" y="-164.8" font-family="Times,serif" font-size="14.00" fill="#000000">ShoppingListModule</text>
</g>
<!-- ShoppingListComponent&#45;&gt;ShoppingListModule -->
<g id="edge1" class="edge">
<title>ShoppingListComponent&#45;&gt;ShoppingListModule</title>
<path fill="none" stroke="#000000" d="M549,-122.1061C549,-141.3391 549,-169 549,-169 549,-169 355.6857,-169 355.6857,-169"/>
<polygon fill="#000000" stroke="#000000" points="355.6857,-165.5001 345.6857,-169 355.6856,-172.5001 355.6857,-165.5001"/>
</g>
<!-- ShoppingListEditComponent -->
<g id="node2" class="node">
<title>ShoppingListEditComponent</title>
<polygon fill="#ffffb3" stroke="#000000" points="453.1178,-122 272.8822,-122 272.8822,-86 453.1178,-86 453.1178,-122"/>
<text text-anchor="middle" x="363" y="-99.8" font-family="Times,serif" font-size="14.00" fill="#000000">ShoppingListEditComponent</text>
</g>
<!-- ShoppingListEditComponent&#45;&gt;ShoppingListModule -->
<g id="edge2" class="edge">
<title>ShoppingListEditComponent&#45;&gt;ShoppingListModule</title>
<path fill="none" stroke="#000000" d="M309.2209,-122.1061C309.2209,-122.1061 309.2209,-140.991 309.2209,-140.991"/>
<polygon fill="#000000" stroke="#000000" points="305.721,-140.9909 309.2209,-150.991 312.721,-140.991 305.721,-140.9909"/>
</g>
<!-- CommonModule -->
<g id="node4" class="node">
<title>CommonModule</title>
<polygon fill="#8dd3c7" stroke="#000000" points="248.6681,-122 245.6681,-126 224.6681,-126 221.6681,-122 137.3319,-122 137.3319,-86 248.6681,-86 248.6681,-122"/>
<text text-anchor="middle" x="193" y="-99.8" font-family="Times,serif" font-size="14.00" fill="#000000">CommonModule</text>
</g>
<!-- CommonModule&#45;&gt;ShoppingListModule -->
<g id="edge3" class="edge">
<title>CommonModule&#45;&gt;ShoppingListModule</title>
<path fill="none" stroke="#000000" d="M229.6666,-122.1061C229.6666,-122.1061 229.6666,-140.991 229.6666,-140.991"/>
<polygon fill="#000000" stroke="#000000" points="226.1666,-140.9909 229.6666,-150.991 233.1666,-140.991 226.1666,-140.9909"/>
</g>
<!-- FormsModule -->
<g id="node5" class="node">
<title>FormsModule</title>
<polygon fill="#8dd3c7" stroke="#000000" points="119.8288,-122 116.8288,-126 95.8288,-126 92.8288,-122 24.1712,-122 24.1712,-86 119.8288,-86 119.8288,-122"/>
<text text-anchor="middle" x="72" y="-99.8" font-family="Times,serif" font-size="14.00" fill="#000000">FormsModule</text>
</g>
<!-- FormsModule&#45;&gt;ShoppingListModule -->
<g id="edge4" class="edge">
<title>FormsModule&#45;&gt;ShoppingListModule</title>
<path fill="none" stroke="#000000" d="M72,-122.1061C72,-141.3391 72,-169 72,-169 72,-169 200.2626,-169 200.2626,-169"/>
<polygon fill="#000000" stroke="#000000" points="200.2626,-172.5001 210.2626,-169 200.2625,-165.5001 200.2626,-172.5001"/>
</g>
</g>
</svg>
