<?xml version="1.0" encoding="UTF-8" standalone="no"?>
<!DOCTYPE svg PUBLIC "-//W3C//DTD SVG 1.1//EN"
 "http://www.w3.org/Graphics/SVG/1.1/DTD/svg11.dtd">
<!-- Generated by graphviz version 2.40.1 (20161225.0304)
 -->
<!-- Title: dependencies Pages: 1 -->
<svg width="504pt" height="284pt"
 viewBox="0.00 0.00 504.00 284.00" xmlns="http://www.w3.org/2000/svg" xmlns:xlink="http://www.w3.org/1999/xlink">
<g id="graph0" class="graph" transform="scale(1 1) rotate(0) translate(4 280)">
<title>dependencies</title>
<polygon fill="#ffffff" stroke="transparent" points="-4,4 -4,-280 500,-280 500,4 -4,4"/>
<text text-anchor="start" x="227.0091" y="-42.4" font-family="sans-serif" font-weight="bold" font-size="14.00" fill="#000000">Legend</text>
<polygon fill="#ffffb3" stroke="transparent" points="14,-10 14,-30 34,-30 34,-10 14,-10"/>
<text text-anchor="start" x="37.629" y="-15.4" font-family="sans-serif" font-size="14.00" fill="#000000"> &#160;Declarations</text>
<polygon fill="#8dd3c7" stroke="transparent" points="127,-10 127,-30 147,-30 147,-10 127,-10"/>
<text text-anchor="start" x="150.7251" y="-15.4" font-family="sans-serif" font-size="14.00" fill="#000000"> &#160;Module</text>
<polygon fill="#80b1d3" stroke="transparent" points="213,-10 213,-30 233,-30 233,-10 213,-10"/>
<text text-anchor="start" x="236.7812" y="-15.4" font-family="sans-serif" font-size="14.00" fill="#000000"> &#160;Bootstrap</text>
<polygon fill="#fdb462" stroke="transparent" points="310,-10 310,-30 330,-30 330,-10 310,-10"/>
<text text-anchor="start" x="333.6732" y="-15.4" font-family="sans-serif" font-size="14.00" fill="#000000"> &#160;Providers</text>
<polygon fill="#fb8072" stroke="transparent" points="406,-10 406,-30 426,-30 426,-10 406,-10"/>
<text text-anchor="start" x="429.7258" y="-15.4" font-family="sans-serif" font-size="14.00" fill="#000000"> &#160;Exports</text>
<g id="clust1" class="cluster">
<title>cluster_RecipesRoutingModule</title>
<polygon fill="none" stroke="#000000" stroke-dasharray="1,5" points="75,-70 75,-268 421,-268 421,-70 75,-70"/>
</g>
<g id="clust3" class="cluster">
<title>cluster_RecipesRoutingModule_imports</title>
<polygon fill="none" stroke="#000000" points="215,-78 215,-130 413,-130 413,-78 215,-78"/>
</g>
<g id="clust4" class="cluster">
<title>cluster_RecipesRoutingModule_exports</title>
<polygon fill="none" stroke="#000000" points="176,-208 176,-260 294,-260 294,-208 176,-208"/>
</g>
<g id="clust6" class="cluster">
<title>cluster_RecipesRoutingModule_providers</title>
<polygon fill="none" stroke="#000000" points="83,-78 83,-130 207,-130 207,-78 83,-78"/>
</g>
<!-- RouterModule.forChild(args) -->
<g id="node1" class="node">
<title>RouterModule.forChild(args)</title>
<polygon fill="#8dd3c7" stroke="#000000" points="404.7323,-122 401.7323,-126 380.7323,-126 377.7323,-122 223.2677,-122 223.2677,-86 404.7323,-86 404.7323,-122"/>
<text text-anchor="middle" x="314" y="-99.8" font-family="Times,serif" font-size="14.00" fill="#000000">RouterModule.forChild(args)</text>
</g>
<!-- RecipesRoutingModule -->
<g id="node2" class="node">
<title>RecipesRoutingModule</title>
<polygon fill="#8dd3c7" stroke="#000000" points="309.4832,-187 306.4832,-191 285.4832,-191 282.4832,-187 160.5168,-187 160.5168,-151 309.4832,-151 309.4832,-187"/>
<text text-anchor="middle" x="235" y="-164.8" font-family="Times,serif" font-size="14.00" fill="#000000">RecipesRoutingModule</text>
</g>
<!-- RouterModule.forChild(args)&#45;&gt;RecipesRoutingModule -->
<g id="edge1" class="edge">
<title>RouterModule.forChild(args)&#45;&gt;RecipesRoutingModule</title>
<path fill="none" stroke="#000000" d="M266.4378,-122.1061C266.4378,-122.1061 266.4378,-140.991 266.4378,-140.991"/>
<polygon fill="#000000" stroke="#000000" points="262.9378,-140.9909 266.4378,-150.991 269.9378,-140.991 262.9378,-140.9909"/>
</g>
<!-- RouterModule  -->
<g id="node3" class="node">
<title>RouterModule </title>
<polygon fill="#fb8072" stroke="#000000" points="285.6523,-252 184.3477,-252 184.3477,-216 285.6523,-216 285.6523,-252"/>
<text text-anchor="middle" x="235" y="-229.8" font-family="Times,serif" font-size="14.00" fill="#000000">RouterModule </text>
</g>
<!-- RecipesRoutingModule&#45;&gt;RouterModule  -->
<g id="edge2" class="edge">
<title>RecipesRoutingModule&#45;&gt;RouterModule </title>
<path fill="none" stroke="#000000" stroke-dasharray="5,2" d="M235,-187.1061C235,-187.1061 235,-205.991 235,-205.991"/>
<polygon fill="#000000" stroke="#000000" points="231.5001,-205.9909 235,-215.991 238.5001,-205.991 231.5001,-205.9909"/>
</g>
<!-- AuthGuard -->
<g id="node4" class="node">
<title>AuthGuard</title>
<ellipse fill="#fdb462" stroke="#000000" cx="145" cy="-104" rx="54.4566" ry="18"/>
<text text-anchor="middle" x="145" y="-99.8" font-family="Times,serif" font-size="14.00" fill="#000000">AuthGuard</text>
</g>
<!-- AuthGuard&#45;&gt;RecipesRoutingModule -->
<g id="edge3" class="edge">
<title>AuthGuard&#45;&gt;RecipesRoutingModule</title>
<path fill="none" stroke="#000000" d="M179.9933,-118.104C179.9933,-118.104 179.9933,-140.7209 179.9933,-140.7209"/>
<polygon fill="#000000" stroke="#000000" points="176.4934,-140.7209 179.9933,-150.7209 183.4934,-140.7209 176.4934,-140.7209"/>
</g>
</g>
</svg>
