<?xml version="1.0" encoding="UTF-8" standalone="no"?>
<!DOCTYPE svg PUBLIC "-//W3C//DTD SVG 1.1//EN"
 "http://www.w3.org/Graphics/SVG/1.1/DTD/svg11.dtd">
<!-- Generated by graphviz version 2.40.1 (20161225.0304)
 -->
<!-- Title: dependencies Pages: 1 -->
<svg width="1022pt" height="284pt"
 viewBox="0.00 0.00 1022.00 284.00" xmlns="http://www.w3.org/2000/svg" xmlns:xlink="http://www.w3.org/1999/xlink">
<g id="graph0" class="graph" transform="scale(1 1) rotate(0) translate(4 280)">
<title>dependencies</title>
<polygon fill="#ffffff" stroke="transparent" points="-4,4 -4,-280 1018,-280 1018,4 -4,4"/>
<text text-anchor="start" x="486.0091" y="-42.4" font-family="sans-serif" font-weight="bold" font-size="14.00" fill="#000000">Legend</text>
<polygon fill="#ffffb3" stroke="transparent" points="273,-10 273,-30 293,-30 293,-10 273,-10"/>
<text text-anchor="start" x="296.629" y="-15.4" font-family="sans-serif" font-size="14.00" fill="#000000"> &#160;Declarations</text>
<polygon fill="#8dd3c7" stroke="transparent" points="386,-10 386,-30 406,-30 406,-10 386,-10"/>
<text text-anchor="start" x="409.7251" y="-15.4" font-family="sans-serif" font-size="14.00" fill="#000000"> &#160;Module</text>
<polygon fill="#80b1d3" stroke="transparent" points="472,-10 472,-30 492,-30 492,-10 472,-10"/>
<text text-anchor="start" x="495.7812" y="-15.4" font-family="sans-serif" font-size="14.00" fill="#000000"> &#160;Bootstrap</text>
<polygon fill="#fdb462" stroke="transparent" points="569,-10 569,-30 589,-30 589,-10 569,-10"/>
<text text-anchor="start" x="592.6732" y="-15.4" font-family="sans-serif" font-size="14.00" fill="#000000"> &#160;Providers</text>
<polygon fill="#fb8072" stroke="transparent" points="665,-10 665,-30 685,-30 685,-10 665,-10"/>
<text text-anchor="start" x="688.7258" y="-15.4" font-family="sans-serif" font-size="14.00" fill="#000000"> &#160;Exports</text>
<g id="clust1" class="cluster">
<title>cluster_AppModule</title>
<polygon fill="none" stroke="#000000" stroke-dasharray="1,5" points="8,-70 8,-268 1006,-268 1006,-70 8,-70"/>
</g>
<g id="clust2" class="cluster">
<title>cluster_AppModule_declarations</title>
<polygon fill="none" stroke="#000000" points="876,-78 876,-130 998,-130 998,-78 876,-78"/>
</g>
<g id="clust4" class="cluster">
<title>cluster_AppModule_imports</title>
<polygon fill="none" stroke="#000000" points="16,-78 16,-130 868,-130 868,-78 16,-78"/>
</g>
<g id="clust6" class="cluster">
<title>cluster_AppModule_bootstrap</title>
<polygon fill="none" stroke="#000000" points="440,-208 440,-260 564,-260 564,-208 440,-208"/>
</g>
<!-- AppComponent -->
<g id="node1" class="node">
<title>AppComponent</title>
<polygon fill="#ffffb3" stroke="#000000" points="989.9399,-122 884.0601,-122 884.0601,-86 989.9399,-86 989.9399,-122"/>
<text text-anchor="middle" x="937" y="-99.8" font-family="Times,serif" font-size="14.00" fill="#000000">AppComponent</text>
</g>
<!-- AppModule -->
<g id="node2" class="node">
<title>AppModule</title>
<polygon fill="#8dd3c7" stroke="#000000" points="543.6571,-187 540.6571,-191 519.6571,-191 516.6571,-187 460.3429,-187 460.3429,-151 543.6571,-151 543.6571,-187"/>
<text text-anchor="middle" x="502" y="-164.8" font-family="Times,serif" font-size="14.00" fill="#000000">AppModule</text>
</g>
<!-- AppComponent&#45;&gt;AppModule -->
<g id="edge1" class="edge">
<title>AppComponent&#45;&gt;AppModule</title>
<path fill="none" stroke="#000000" d="M937,-122.2921C937,-144.2057 937,-178 937,-178 937,-178 553.7096,-178 553.7096,-178"/>
<polygon fill="#000000" stroke="#000000" points="553.7097,-174.5001 543.7096,-178 553.7096,-181.5001 553.7097,-174.5001"/>
</g>
<!-- AppComponent  -->
<g id="node10" class="node">
<title>AppComponent </title>
<polygon fill="#80b1d3" stroke="#000000" points="556.439,-252 447.561,-252 447.561,-216 556.439,-216 556.439,-252"/>
<text text-anchor="middle" x="502" y="-229.8" font-family="Times,serif" font-size="14.00" fill="#000000">AppComponent </text>
</g>
<!-- AppModule&#45;&gt;AppComponent  -->
<g id="edge9" class="edge">
<title>AppModule&#45;&gt;AppComponent </title>
<path fill="none" stroke="#000000" stroke-dasharray="1,5" d="M502,-187.1061C502,-187.1061 502,-205.991 502,-205.991"/>
<polygon fill="#000000" stroke="#000000" points="498.5001,-205.9909 502,-215.991 505.5001,-205.991 498.5001,-205.9909"/>
</g>
<!-- BrowserModule -->
<g id="node3" class="node">
<title>BrowserModule</title>
<polygon fill="#8dd3c7" stroke="#000000" points="860.4734,-122 857.4734,-126 836.4734,-126 833.4734,-122 753.5266,-122 753.5266,-86 860.4734,-86 860.4734,-122"/>
<text text-anchor="middle" x="807" y="-99.8" font-family="Times,serif" font-size="14.00" fill="#000000">BrowserModule</text>
</g>
<!-- BrowserModule&#45;&gt;AppModule -->
<g id="edge2" class="edge">
<title>BrowserModule&#45;&gt;AppModule</title>
<path fill="none" stroke="#000000" d="M807,-122.1061C807,-141.3391 807,-169 807,-169 807,-169 553.7694,-169 553.7694,-169"/>
<polygon fill="#000000" stroke="#000000" points="553.7695,-165.5001 543.7694,-169 553.7694,-172.5001 553.7695,-165.5001"/>
</g>
<!-- HttpModule -->
<g id="node4" class="node">
<title>HttpModule</title>
<polygon fill="#8dd3c7" stroke="#000000" points="735.4387,-122 732.4387,-126 711.4387,-126 708.4387,-122 650.5613,-122 650.5613,-86 735.4387,-86 735.4387,-122"/>
<text text-anchor="middle" x="693" y="-99.8" font-family="Times,serif" font-size="14.00" fill="#000000">HttpModule</text>
</g>
<!-- HttpModule&#45;&gt;AppModule -->
<g id="edge3" class="edge">
<title>HttpModule&#45;&gt;AppModule</title>
<path fill="none" stroke="#000000" d="M693,-122.027C693,-138.3976 693,-160 693,-160 693,-160 553.9158,-160 553.9158,-160"/>
<polygon fill="#000000" stroke="#000000" points="553.9158,-156.5001 543.9158,-160 553.9157,-163.5001 553.9158,-156.5001"/>
</g>
<!-- AppRoutingModule -->
<g id="node5" class="node">
<title>AppRoutingModule</title>
<polygon fill="#8dd3c7" stroke="#000000" points="632.2744,-122 629.2744,-126 608.2744,-126 605.2744,-122 503.7256,-122 503.7256,-86 632.2744,-86 632.2744,-122"/>
<text text-anchor="middle" x="568" y="-99.8" font-family="Times,serif" font-size="14.00" fill="#000000">AppRoutingModule</text>
</g>
<!-- AppRoutingModule&#45;&gt;AppModule -->
<g id="edge4" class="edge">
<title>AppRoutingModule&#45;&gt;AppModule</title>
<path fill="none" stroke="#000000" d="M523.7206,-122.1061C523.7206,-122.1061 523.7206,-140.991 523.7206,-140.991"/>
<polygon fill="#000000" stroke="#000000" points="520.2206,-140.9909 523.7206,-150.991 527.2206,-140.991 520.2206,-140.9909"/>
</g>
<!-- SharedModule -->
<g id="node6" class="node">
<title>SharedModule</title>
<polygon fill="#8dd3c7" stroke="#000000" points="485.4231,-122 482.4231,-126 461.4231,-126 458.4231,-122 386.5769,-122 386.5769,-86 485.4231,-86 485.4231,-122"/>
<text text-anchor="middle" x="436" y="-99.8" font-family="Times,serif" font-size="14.00" fill="#000000">SharedModule</text>
</g>
<!-- SharedModule&#45;&gt;AppModule -->
<g id="edge5" class="edge">
<title>SharedModule&#45;&gt;AppModule</title>
<path fill="none" stroke="#000000" d="M472.6915,-122.1061C472.6915,-122.1061 472.6915,-140.991 472.6915,-140.991"/>
<polygon fill="#000000" stroke="#000000" points="469.1915,-140.9909 472.6915,-150.991 476.1915,-140.991 469.1915,-140.9909"/>
</g>
<!-- ShoppingListModule -->
<g id="node7" class="node">
<title>ShoppingListModule</title>
<polygon fill="#8dd3c7" stroke="#000000" points="368.5014,-122 365.5014,-126 344.5014,-126 341.5014,-122 233.4986,-122 233.4986,-86 368.5014,-86 368.5014,-122"/>
<text text-anchor="middle" x="301" y="-99.8" font-family="Times,serif" font-size="14.00" fill="#000000">ShoppingListModule</text>
</g>
<!-- ShoppingListModule&#45;&gt;AppModule -->
<g id="edge6" class="edge">
<title>ShoppingListModule&#45;&gt;AppModule</title>
<path fill="none" stroke="#000000" d="M301,-122.027C301,-138.3976 301,-160 301,-160 301,-160 449.8638,-160 449.8638,-160"/>
<polygon fill="#000000" stroke="#000000" points="449.8638,-163.5001 459.8638,-160 449.8638,-156.5001 449.8638,-163.5001"/>
</g>
<!-- AuthModule -->
<g id="node8" class="node">
<title>AuthModule</title>
<polygon fill="#8dd3c7" stroke="#000000" points="215.5482,-122 212.5482,-126 191.5482,-126 188.5482,-122 128.4518,-122 128.4518,-86 215.5482,-86 215.5482,-122"/>
<text text-anchor="middle" x="172" y="-99.8" font-family="Times,serif" font-size="14.00" fill="#000000">AuthModule</text>
</g>
<!-- AuthModule&#45;&gt;AppModule -->
<g id="edge7" class="edge">
<title>AuthModule&#45;&gt;AppModule</title>
<path fill="none" stroke="#000000" d="M172,-122.1061C172,-141.3391 172,-169 172,-169 172,-169 450.2053,-169 450.2053,-169"/>
<polygon fill="#000000" stroke="#000000" points="450.2053,-172.5001 460.2053,-169 450.2052,-165.5001 450.2053,-172.5001"/>
</g>
<!-- CoreModule -->
<g id="node9" class="node">
<title>CoreModule</title>
<polygon fill="#8dd3c7" stroke="#000000" points="110.2619,-122 107.2619,-126 86.2619,-126 83.2619,-122 23.7381,-122 23.7381,-86 110.2619,-86 110.2619,-122"/>
<text text-anchor="middle" x="67" y="-99.8" font-family="Times,serif" font-size="14.00" fill="#000000">CoreModule</text>
</g>
<!-- CoreModule&#45;&gt;AppModule -->
<g id="edge8" class="edge">
<title>CoreModule&#45;&gt;AppModule</title>
<path fill="none" stroke="#000000" d="M67,-122.2921C67,-144.2057 67,-178 67,-178 67,-178 450.2904,-178 450.2904,-178"/>
<polygon fill="#000000" stroke="#000000" points="450.2904,-181.5001 460.2904,-178 450.2903,-174.5001 450.2904,-181.5001"/>
</g>
</g>
</svg>
